TITLE ""
FILE "1Q_t_0529-0538.mp3" MP3
  TRACK 01 AUDIO
    TITLE "1Q_t_0529-0538_01"
    INDEX 01 00:00:00
  TRACK 02 AUDIO
    TITLE "1Q_t_0529-0538_02"
    INDEX 01 00:01:08
  TRACK 03 AUDIO
    TITLE "1Q_t_0529-0538_03"
    INDEX 01 00:01:61
  TRACK 04 AUDIO
    TITLE "1Q_t_0529-0538_04"
    INDEX 01 00:02:74
  TRACK 05 AUDIO
    TITLE "1Q_t_0529-0538_05"
    INDEX 01 00:03:16
  TRACK 06 AUDIO
    TITLE "1Q_t_0529-0538_06"
    INDEX 01 00:04:71
  TRACK 07 AUDIO
    TITLE "1Q_t_0529-0538_07"
    INDEX 01 00:05:10
  TRACK 08 AUDIO
    TITLE "1Q_t_0529-0538_08"
    INDEX 01 00:09:39
  TRACK 09 AUDIO
    TITLE "1Q_t_0529-0538_09"
    INDEX 01 00:10:19
  TRACK 10 AUDIO
    TITLE "1Q_t_0529-0538_10"
    INDEX 01 00:11:18
  TRACK 11 AUDIO
    TITLE "1Q_t_0529-0538_11"
    INDEX 01 00:11:34
  TRACK 12 AUDIO
    TITLE "1Q_t_0529-0538_12"
    INDEX 01 00:14:55
  TRACK 13 AUDIO
    TITLE "1Q_t_0529-0538_13"
    INDEX 01 00:14:71
  TRACK 14 AUDIO
    TITLE "1Q_t_0529-0538_14"
    INDEX 01 00:19:08
  TRACK 15 AUDIO
    TITLE "1Q_t_0529-0538_15"
    INDEX 01 00:19:63
  TRACK 16 AUDIO
    TITLE "1Q_t_0529-0538_16"
    INDEX 01 00:20:70
  TRACK 17 AUDIO
    TITLE "1Q_t_0529-0538_17"
    INDEX 01 00:21:10
  TRACK 18 AUDIO
    TITLE "1Q_t_0529-0538_18"
    INDEX 01 00:22:04
  TRACK 19 AUDIO
    TITLE "1Q_t_0529-0538_19"
    INDEX 01 00:22:18
  TRACK 20 AUDIO
    TITLE "1Q_t_0529-0538_20"
    INDEX 01 00:26:21
  TRACK 21 AUDIO
    TITLE "1Q_t_0529-0538_21"
    INDEX 01 00:26:74
  TRACK 22 AUDIO
    TITLE "1Q_t_0529-0538_22"
    INDEX 01 00:28:07
  TRACK 23 AUDIO
    TITLE "1Q_t_0529-0538_23"
    INDEX 01 00:28:24
  TRACK 24 AUDIO
    TITLE "1Q_t_0529-0538_24"
    INDEX 01 00:29:51
  TRACK 25 AUDIO
    TITLE "1Q_t_0529-0538_25"
    INDEX 01 00:29:65
  TRACK 26 AUDIO
    TITLE "1Q_t_0529-0538_26"
    INDEX 01 00:34:43
  TRACK 27 AUDIO
    TITLE "1Q_t_0529-0538_27"
    INDEX 01 00:35:20
  TRACK 28 AUDIO
    TITLE "1Q_t_0529-0538_28"
    INDEX 01 00:36:39
  TRACK 29 AUDIO
    TITLE "1Q_t_0529-0538_29"
    INDEX 01 00:36:55
  TRACK 30 AUDIO
    TITLE "1Q_t_0529-0538_30"
    INDEX 01 00:40:08
  TRACK 31 AUDIO
    TITLE "1Q_t_0529-0538_31"
    INDEX 01 00:40:24
  TRACK 32 AUDIO
    TITLE "1Q_t_0529-0538_32"
    INDEX 01 00:45:01
  TRACK 33 AUDIO
    TITLE "1Q_t_0529-0538_33"
    INDEX 01 00:45:54
  TRACK 34 AUDIO
    TITLE "1Q_t_0529-0538_34"
    INDEX 01 00:46:73
  TRACK 35 AUDIO
    TITLE "1Q_t_0529-0538_35"
    INDEX 01 00:47:16
  TRACK 36 AUDIO
    TITLE "1Q_t_0529-0538_36"
    INDEX 01 00:49:15
  TRACK 37 AUDIO
    TITLE "1Q_t_0529-0538_37"
    INDEX 01 00:49:30
  TRACK 38 AUDIO
    TITLE "1Q_t_0529-0538_38"
    INDEX 01 00:54:10
  TRACK 39 AUDIO
    TITLE "1Q_t_0529-0538_39"
    INDEX 01 00:54:63
  TRACK 40 AUDIO
    TITLE "1Q_t_0529-0538_40"
    INDEX 01 00:55:62
  TRACK 41 AUDIO
    TITLE "1Q_t_0529-0538_41"
    INDEX 01 00:56:03
  TRACK 42 AUDIO
    TITLE "1Q_t_0529-0538_42"
    INDEX 01 00:59:15
  TRACK 43 AUDIO
    TITLE "1Q_t_0529-0538_43"
    INDEX 01 00:59:31
  TRACK 44 AUDIO
    TITLE "1Q_t_0529-0538_44"
    INDEX 01 01:05:35
  TRACK 45 AUDIO
    TITLE "1Q_t_0529-0538_45"
    INDEX 01 01:06:13
  TRACK 46 AUDIO
    TITLE "1Q_t_0529-0538_46"
    INDEX 01 01:07:42
  TRACK 47 AUDIO
    TITLE "1Q_t_0529-0538_47"
    INDEX 01 01:07:58
  TRACK 48 AUDIO
    TITLE "1Q_t_0529-0538_48"
    INDEX 01 01:08:67
  TRACK 49 AUDIO
    TITLE "1Q_t_0529-0538_49"
    INDEX 01 01:09:06
  TRACK 50 AUDIO
    TITLE "1Q_t_0529-0538_50"
    INDEX 01 01:13:19
  TRACK 51 AUDIO
    TITLE "1Q_t_0529-0538_51"
    INDEX 01 01:13:72
  TRACK 52 AUDIO
    TITLE "1Q_t_0529-0538_52"
    INDEX 01 01:15:12
  TRACK 53 AUDIO
    TITLE "1Q_t_0529-0538_53"
    INDEX 01 01:15:30
  TRACK 54 AUDIO
    TITLE "1Q_t_0529-0538_54"
    INDEX 01 01:16:33
  TRACK 55 AUDIO
    TITLE "1Q_t_0529-0538_55"
    INDEX 01 01:16:49
  TRACK 56 AUDIO
    TITLE "1Q_t_0529-0538_56"
    INDEX 01 01:20:41
  TRACK 57 AUDIO
    TITLE "1Q_t_0529-0538_57"
    INDEX 01 01:21:17
  TRACK 58 AUDIO
    TITLE "1Q_t_0529-0538_58"
    INDEX 01 01:22:30
  TRACK 59 AUDIO
    TITLE "1Q_t_0529-0538_59"
    INDEX 01 01:22:45
  TRACK 60 AUDIO
    TITLE "1Q_t_0529-0538_60"
    INDEX 01 01:24:48
  TRACK 61 AUDIO
    TITLE "1Q_t_0529-0538_61"
    INDEX 01 01:24:62
  TRACK 62 AUDIO
    TITLE "1Q_t_0529-0538_62"
    INDEX 01 01:29:45
